<svg width="25" height="41" version="1.1" viewBox="0 0 25 41" xmlns="http://www.w3.org/2000/svg">
 <g>
  <ellipse class="UnoptimicedTransforms" transform="matrix(.65193 0 0 .69094 3.829 3.7868)" cx="13.301" cy="13.334" rx="7.6695" ry="7.2366" fill="#fff" style="paint-order:fill markers stroke"/>
  <path class="UnoptimicedTransforms" d="m12.5.24641c-6.716 0-12.254 5.6069-12.254 12.407 0 6.8002 12.255 28.223 12.255 28.223s12.252-21.423 12.252-28.223c0-6.8002-5.5376-12.407-12.254-12.407zm0 8.7955c2.0219 0 3.5669 1.5644 3.5669 3.6116 0 2.0473-1.545 3.6116-3.5669 3.6116-2.0219 0-3.5669-1.5644-3.5669-3.6116 0-2.0473 1.545-3.6116 3.5669-3.6116z" color="#000000" fill="#047857" stroke="#fff" stroke-linejoin="bevel" stroke-width=".49281" style="paint-order:fill markers stroke"/>
 </g>
</svg>
