<svg width="21" height="21" version="1.1" viewBox="0 0 21 21" xmlns="http://www.w3.org/2000/svg">
 <rect width="21" height="21" fill="#7123c3" style="paint-order:fill markers stroke"/>
 <g transform="matrix(.84848 0 0 .84848 5.026 3.9242)" fill="none" fill-rule="evenodd" opacity=".8" stroke="#fff" stroke-linecap="round" stroke-linejoin="round" stroke-opacity=".99598" stroke-width=".99943">
  <path d="m1.25 6.25c.72441-.14488 1.4491.24767 1.7234.93358l.52657 1.3164v-6c0-.55228.44772-1 1-1s1 .44772 1 1v-1.5c0-.55228.44772-1 1-1 .55228 0 1 .44772 1 1v1c0-.55228.44772-1 1-1s1 .44772 1 1v1.5c0-.55228.44772-1 1-1 .55228 0 1 .44772 1 1v8c0 2.2091-1.7909 4-4 4-2.3508 0-4.4-1.5999-4.9701-3.8806l-.029858-.11943-1.9299-3.8598c-.24048-.48096-.045533-1.0658.43543-1.3063.077404-.038702.15962-.066912.24448-.083884z"/>
  <path d="m5.5 1.5v6"/>
  <path d="m7.5 1.5v5"/>
  <path d="m9.5 3.5v4"/>
 </g>
</svg>
